<svg xmlns="http://www.w3.org/2000/svg" viewBox="0 0 64 64" width="64" height="64">
  <defs>
    <linearGradient id="g" x1="0" y1="0" x2="64" y2="64" gradientUnits="userSpaceOnUse">
      <stop offset="0" stop-color="#6ea8fe"/>
      <stop offset="1" stop-color="#b692ff"/>
    </linearGradient>
  </defs>
  <rect x="0" y="0" width="64" height="64" rx="15" fill="url(#g)"/>
  <g fill="#ffffff">
    <rect x="29" y="7" width="6" height="15" rx="2"/>
    <rect x="29" y="7" width="6" height="15" rx="2" transform="rotate(45 32 32)"/>
    <rect x="29" y="7" width="6" height="15" rx="2" transform="rotate(90 32 32)"/>
    <rect x="29" y="7" width="6" height="15" rx="2" transform="rotate(135 32 32)"/>
    <rect x="29" y="7" width="6" height="15" rx="2" transform="rotate(180 32 32)"/>
    <rect x="29" y="7" width="6" height="15" rx="2" transform="rotate(225 32 32)"/>
    <rect x="29" y="7" width="6" height="15" rx="2" transform="rotate(270 32 32)"/>
    <rect x="29" y="7" width="6" height="15" rx="2" transform="rotate(315 32 32)"/>
    <circle cx="32" cy="32" r="13"/>
  </g>
  <circle cx="32" cy="32" r="5.5" fill="#141826"/>
</svg>
